<svg id="Capa_1" enable-background="new 0 0 512 512" height="512" viewBox="0 0 512 512" width="512" xmlns="http://www.w3.org/2000/svg"><g><path d="m512 182v-120h-31v-32h-30v32h-390v-32h-30v32h-31v120h31v30h-31v120h31v120h-31v30h91v-30h-30v-120h390v120h-30v30h91v-30h-31v-120h31v-120h-31v-30zm-60.3-90-80.667 60h-70.033l80-60zm-.7 90v30h-390v-30zm-120-90-80 60h-70l80-60zm-120 0-80 60h-70.7l80.667-60zm-181 45.149v-45.149h60.7zm0 150v-45.149h60.7zm30.3 14.851 80.667-60h70.033l-80 60zm120.7 0 80-60h70l-80 60zm120 0 80-60h70.7l-80.667 60zm181-45.149v45.149h-60.7zm-60.7-104.851 60.7-45.149v45.149z"/></g></svg>