<svg id="Capa_1" enable-background="new 0 0 512 512" height="512" viewBox="0 0 512 512" width="512" xmlns="http://www.w3.org/2000/svg"><g><path d="m451.75 60.048v-30.024h-30v30.024h-331.5v-30.024h-30v30.024h-60.25v421.928h512v-421.928zm-391.5 30v30.024h30v-30.024h331.5v30.024h30v-30.024h30.25v60.072h-452v-60.072zm-30.25 361.928v-271.856h452v271.856z"/><path d="m306.028 234.718v-24.55h-100.056v24.55c-43.068 12.893-73.658 51.617-75.751 97.161h-30.141v90.048h311.84v-90.047h-30.141c-2.092-45.544-32.684-84.269-75.751-97.162zm45.69 97.162h-45.69v-65.272c25.908 11.303 43.831 36.269 45.69 65.272zm-75.69-91.712v91.712h-40.057v-91.712zm-70.056 26.44v65.272h-45.69c1.859-29.004 19.782-53.97 45.69-65.272zm175.948 125.32h-251.84v-30.048h251.84z"/></g></svg>