<svg height="512pt" viewBox="-91 0 512 512" width="512pt" xmlns="http://www.w3.org/2000/svg"><path d="m329.824219 512v-512h-329.824219v512l164.914062-82.457031zm-29.984375-482.015625v29.984375h-269.855469v-29.984375zm-269.855469 59.96875h269.855469v373.53125l-134.925782-67.464844-134.929687 67.464844zm0 0"/><path d="m166.191406 316.535156 69.867188 36.6875-13.375-77.773437 56.484375-55.113281-78.101563-11.3125-34.960937-70.75-34.894531 70.785156-78.089844 11.386718 56.539062 55.058594-13.304687 77.785156zm-15.054687-80.082031 15-30.429687 15.03125 30.417968 33.574219 4.863282-24.28125 23.691406 5.75 33.433594-30.035157-15.769532-30.023437 15.800782 5.71875-33.441407-24.304688-23.667969zm0 0"/></svg>