<svg version="1.2" xmlns="http://www.w3.org/2000/svg" viewBox="0 0 512 512" width="512" height="512">
	<title>taxes</title>
	<style>
		.s0 { fill: #000000 } 
	</style>
	<g>
		<path class="s0" d="m253.7 269.7l-118.3 88.8-135.4-66.6v220.1h512v-352.2l-139.6 139.6zm-101.7 113.8l90-67.5v166h-90zm120-78.3l90 22.5v154.3h-90zm-242 34.9l92 45.2v96.7h-92zm452 141.9h-90v-159.8l90-90z"/>
		<path class="s0" d="m437 61v30h28.9l-111.9 111.9-113.4-28.3-111.6 83.6-107.4-52.7-13.2 26.9 123.9 60.9 114.8-86.2 116.1 29.1 118.8-118.8v18.6h30v-75z"/>
	</g>
</svg>