<svg version="1.2" xmlns="http://www.w3.org/2000/svg" viewBox="0 0 512 512" width="512" height="512">
	<title>pin</title>
	<style>
		.s0 { fill: #0077b6 } 
	</style>
	<g>
		<g>
			<path class="s0" d="m256 0c-94.1 0-170.7 76.6-170.7 170.7 0 28.2 7.1 56.2 20.5 81.1l140.9 254.7c1.8 3.4 5.4 5.5 9.3 5.5 3.9 0 7.5-2.1 9.3-5.5l140.9-254.8c13.4-24.8 20.5-52.8 20.5-81 0-94.1-76.6-170.7-170.7-170.7zm0 256c-47.1 0-85.3-38.3-85.3-85.3 0-47.1 38.2-85.4 85.3-85.4 47.1 0 85.3 38.3 85.3 85.4 0 47-38.2 85.3-85.3 85.3z"/>
		</g>
	</g>
	<g>
	</g>
	<g>
	</g>
	<g>
	</g>
	<g>
	</g>
	<g>
	</g>
	<g>
	</g>
	<g>
	</g>
	<g>
	</g>
	<g>
	</g>
	<g>
	</g>
	<g>
	</g>
	<g>
	</g>
	<g>
	</g>
	<g>
	</g>
	<g>
	</g>
</svg>