<svg version="1.2" xmlns="http://www.w3.org/2000/svg" viewBox="0 0 50 50" width="50" height="50">
	<title>geo-alt</title>
	<style>
		.s0 { fill: #5b5b5b } 
		.s1 { fill: #000000 } 
		.s2 { fill: #222222 } 
	</style>
	<path id="Layer 1" class="s0" d="m42 19c0 8.2-10.4 22.7-14.9 28.7-1.1 1.5-3.1 1.5-4.2 0-4.5-6-14.9-20.5-14.9-28.7 0-9.9 7.6-18 17-18 9.4 0 17 8.1 17 18z"/>
	<path class="s1" d="m25.2 49.6c0 0 18.3-17.2 18.3-30.4 0-4.8-1.9-9.4-5.4-12.9-3.4-3.4-8-5.3-12.9-5.3-4.8 0-9.4 1.9-12.9 5.3-3.4 3.5-5.3 8.1-5.3 12.9 0 13.2 18.2 30.4 18.2 30.4zm12.7-21.4c-1.6 3.2-3.7 6.4-6 9.3q-0.7 1-1.6 2-0.8 1-1.6 2-0.8 1-1.7 1.9-0.9 1-1.8 1.9-0.8-0.9-1.7-1.9-0.9-0.9-1.7-1.9-0.9-1-1.7-2-0.8-1-1.6-2c-2.2-2.9-4.3-6.1-5.9-9.3-1.6-3.3-2.6-6.3-2.6-9 0-4 1.6-7.9 4.5-10.7 2.8-2.9 6.7-4.5 10.7-4.5 4.1 0 7.9 1.6 10.8 4.5 2.8 2.8 4.4 6.7 4.4 10.7 0 2.7-0.9 5.7-2.5 9z"/>
	<path id="Layer 2" class="s2" d="m25 26c1.9 0 3.7-0.7 5-1.9 1.3-1.3 2-2.9 2-4.6 0-1.7-0.7-3.4-2-4.6-1.3-1.2-3.1-1.9-5-1.9-1.8 0-3.6 0.7-4.9 1.9-1.4 1.2-2.1 2.9-2.1 4.6 0 1.7 0.7 3.3 2.1 4.6 1.3 1.2 3.1 1.9 4.9 1.9z"/>
	<path class="s1" d="m25.2 28.4c2.5 0 4.8-1 6.5-2.7 1.7-1.7 2.7-4 2.7-6.5 0-2.4-1-4.7-2.7-6.4-1.7-1.7-4-2.7-6.5-2.7-2.4 0-4.7 1-6.4 2.7-1.7 1.7-2.7 4-2.7 6.4 0 2.5 1 4.8 2.7 6.5 1.7 1.7 4 2.7 6.4 2.7zm0-3.1c-1.6 0-3.1-0.6-4.3-1.8-1.1-1.1-1.7-2.6-1.7-4.3 0-1.6 0.6-3.1 1.7-4.3 1.2-1.1 2.7-1.7 4.3-1.7 1.7 0 3.2 0.6 4.3 1.7 1.2 1.2 1.8 2.7 1.8 4.3 0 1.7-0.6 3.2-1.8 4.3-1.1 1.2-2.6 1.8-4.3 1.8z"/>
</svg>